<svg xmlns="http://www.w3.org/2000/svg" width="1100" height="680" viewBox="0 0 1100 680">
  <style>
    .bg { fill: #f2f6f8; }
    .box { fill: #ffffff; stroke: #203845; stroke-width: 2; }
    .text { fill: #12232c; font: 24px Menlo, Monaco, Consolas, monospace; }
    .arrow { stroke: #456476; stroke-width: 4; fill: none; marker-end: url(#arrow); }
  </style>
  <rect class="bg" x="0" y="0" width="1100" height="680"/>
  <defs>
    <marker id="arrow" viewBox="0 0 10 10" refX="8" refY="5" markerWidth="8" markerHeight="8" orient="auto">
      <path d="M 0 0 L 10 5 L 0 10 z" fill="#456476"/>
    </marker>
  </defs>

  <rect class="box" x="130" y="40" width="840" height="64" rx="14"/>
  <text class="text" x="160" y="80">find_refid_fastas.py</text>
  <path class="arrow" d="M550 104 L550 134"/>

  <rect class="box" x="130" y="134" width="840" height="64" rx="14"/>
  <text class="text" x="160" y="174">build_ns5b_gt_allstudies.py</text>
  <path class="arrow" d="M550 198 L550 228"/>

  <rect class="box" x="130" y="228" width="840" height="64" rx="14"/>
  <text class="text" x="160" y="268">build_ns5b_subtype_allstudies_wseqs.py</text>
  <path class="arrow" d="M550 292 L550 322"/>

  <rect class="box" x="130" y="322" width="840" height="64" rx="14"/>
  <text class="text" x="160" y="362">build_ns5b_completeprofiles_tabspergt.py</text>

  <path class="arrow" d="M550 386 L550 426 L320 426 L320 456"/>
  <path class="arrow" d="M550 386 L550 426 L780 426 L780 456"/>

  <rect class="box" x="90" y="456" width="460" height="64" rx="14"/>
  <text class="text" x="120" y="496">build_ns5b_gt_ras_profiles.py</text>

  <rect class="box" x="550" y="456" width="460" height="64" rx="14"/>
  <text class="text" x="580" y="496">build_ns5b_subtype_ras_profiles_nge10.py</text>
</svg>
